<?xml version="1.0" standalone="no"?><!DOCTYPE svg PUBLIC "-//W3C//DTD SVG 1.1//EN" "http://www.w3.org/Graphics/SVG/1.1/DTD/svg11.dtd"><svg t="1750042744848" class="icon" viewBox="0 0 1024 1024" version="1.1" xmlns="http://www.w3.org/2000/svg" p-id="5311" xmlns:xlink="http://www.w3.org/1999/xlink" width="256" height="256"><path d="M209.455 0h605.09Q1024 0 1024 209.455v605.09Q1024 1024 814.545 1024h-605.09Q0 1024 0 814.545v-605.09Q0 0 209.455 0z" fill="#175DFF" p-id="5312"></path><path d="M795.066 244.62v-13.103l-82.292-45.335-39.378 27.438H162.91l13.126 31h232.541l-27.392 134.725-90.647-5.98-64.42-10.706v452.189h120.484v-41.821h264.774v41.798h119.342V595.828c-6.074 2.42-12.311 4.701-18.665 6.89-34.77 11.868-68.724 18.71-99.42 20.805v120.855H346.6V405.644h265.984v31.72a425.472 425.472 0 0 1 37.655-14.894 406.9 406.9 0 0 1 80.477-19.014v-25.25L614.96 361.448v15.5H455.12l79.686-132.4 260.26 0.07z" fill="#FFFFFF" p-id="5313"></path><path d="M363.287 736.047l89.46-94.232s104.96 20.294 180.132-35.77c0 0-41.752-26.252-46.546-25.041 0 0 109.754 31.022 194.444-56.064 0 0-16.71-8.332-62.604-11.916 0 0 107.916 8.332 142.522-92.44 0 0-162.816-23.551-322.955 91.835-160.117 115.386-174.453 223.65-174.453 223.65z" fill="#FFFFFF" p-id="5314"></path></svg>