<?xml version="1.0" standalone="no"?><!DOCTYPE svg PUBLIC "-//W3C//DTD SVG 1.1//EN" "http://www.w3.org/Graphics/SVG/1.1/DTD/svg11.dtd"><svg t="1750043676313" class="icon" viewBox="0 0 1321 1024" version="1.1" xmlns="http://www.w3.org/2000/svg" p-id="10406" xmlns:xlink="http://www.w3.org/1999/xlink" width="330.25" height="256"><path d="M660.945455 0.716084c182.35793 0 347.455373 49.481399 466.961186 129.496615C1247.286422 210.141986 1321.174825 320.552101 1321.174825 442.53986c0 121.986327-73.888403 232.396442-193.268184 312.327161-119.505813 80.015217-284.604688 129.496615-466.961186 129.496615-182.35793 0-347.455373-49.481399-466.961186-129.496615C74.604487 674.937734 0.716084 564.52762 0.716084 442.53986c0-121.986327 73.888403-232.396442 193.268185-312.327161C313.490081 50.197483 478.588957 0.716084 660.945455 0.716084z m93.090909 158.970629c-136.792078 0-260.630199 35.476229-350.272448 92.815933C313.97845 309.935441 258.506294 389.293292 258.506294 476.911888c0 87.620028 55.472157 166.976448 145.257622 224.409242C493.406165 758.660834 617.244285 794.137063 754.036364 794.137063c143.400101 0 279.448884-33.074484 369.906036-95.365192C1206.191799 642.132498 1249.566434 560.307021 1249.566434 476.911888c0-72.048067-29.287832-141.698685-90.467178-196.02654-16.9984-15.095049-41.118971-31.874327-62.409578-44.477404-88.333248-52.288448-212.804386-76.721231-342.653314-76.721231z" fill="#D8D8D8" p-id="10407"></path><path d="M537.062937 279.984515l450.13035 0.001432c14.411905 0.08593 42.124352 4.428263 83.140207 17.15737 24.298159 7.540364 60.407407 27.393074 87.367966 64.171145 18.941852 25.839172 33.36235 60.035043 36.01186 104.183048 2.593656 43.237147-6.040884 92.711385-27.812699 126.314339-31.650909 48.84838-82.184951 72.264324-95.087351 78.245057-13.903485 6.45478-37.959608 12.876621-72.726915 19.544795l-2.746898 0.524173 2.660968 0.859301a9004.176649 9004.176649 0 0 0 40.103564 12.890942c5.596912 1.781617 13.283357 5.473745 21.045706 9.642786l0.830657 0.448269 1.311866 0.71322c1.019703 0.558545 2.039407 1.12282 3.05195 1.689958l1.211614 0.681712c11.680761 6.597997 22.253024 13.395066 24.581728 15.335653 2.718255 2.26569 7.157975 8.452655 13.347805 18.529387l0.405303 0.663094 0.411032 0.673119 13.605595 23.630769L1264.77892 1023.283916H1011.538708c-43.270087-80.399038-76.409018-141.700117-99.416795-183.907536l-0.693169-1.273197-2.201242-4.032984c-13.00838-23.838434-22.520839-41.086031-28.537376-51.742792-16.511463-29.249164-33.060162-46.168794-49.557304-50.907838l-0.549952-0.153242L760.481119 731.121678V1023.283916H537.062937V279.984515zM906.562238 438.959441H762.629371v130.327272H906.562238l0.832089-0.005728c15.514674-0.21769 29.554215-6.527821 39.840045-16.641791 10.484901-10.315905 17.067144-24.587457 17.323502-40.395725l0.007161-0.953824V496.962238l-0.005729-0.827793c-0.219122-15.687966-6.666741-29.870724-16.982646-40.18663-10.49779-10.496358-24.997057-16.988375-41.014422-16.988374z" fill="#1E64B6" p-id="10408"></path></svg>